HIERARCHY
ROOT hip
{
	OFFSET 0.000000 0.000000 0.000000 
	CHANNELS 6 Xposition Yposition Zposition Xrotation Zrotation Yrotation
	JOINT abdomen
	{
		OFFSET 0.000000 3.402643 0.000000 
		CHANNELS 3 Xrotation Zrotation Yrotation
		JOINT chest
		{
			OFFSET 0.000000 8.438565 -0.680529 
			CHANNELS 3 Xrotation Zrotation Yrotation
			JOINT neck
			{
				OFFSET 0.000000 10.207942 -0.272212 
				CHANNELS 3 Xrotation Zrotation Yrotation
				JOINT head
				{
					OFFSET 0.000000 3.130431 0.000000 
					CHANNELS 3 Xrotation Zrotation Yrotation
					End Site
					{
						OFFSET 0.000000 3.130435 0.000000 
					}
				}
			}
			JOINT lCollar
			{
				OFFSET 3.470700 6.669187 -0.816635 
				CHANNELS 3 Yrotation Zrotation Xrotation
				JOINT lShldr
				{
					OFFSET 3.198488 0.000000 0.000000 
					CHANNELS 3 Zrotation Yrotation Xrotation
					JOINT lForeArm
					{
						OFFSET 10.139888 0.000000 0.000000 
						CHANNELS 3 Yrotation Zrotation Xrotation
						JOINT lHand
						{
							OFFSET 8.370511 0.000000 0.000000 
							CHANNELS 3 Zrotation Yrotation Xrotation
							End Site
							{
								OFFSET 4.083176 0.000000 0.000000 
							}
						}
					}
				}
			}
			JOINT rCollar
			{
				OFFSET -3.470700 6.669187 -0.816635 
				CHANNELS 3 Yrotation Zrotation Xrotation
				JOINT rShldr
				{
					OFFSET -3.198488 0.000000 0.000000 
					CHANNELS 3 Zrotation Yrotation Xrotation
					JOINT rForeArm
					{
						OFFSET -10.139888 0.000000 0.000000 
						CHANNELS 3 Yrotation Zrotation Xrotation
						JOINT rHand
						{
							OFFSET -8.370511 0.000000 0.000000 
							CHANNELS 3 Zrotation Yrotation Xrotation
							End Site
							{
								OFFSET -4.083176 0.000000 0.000000 
							}
						}
					}
				}
			}
		}
	}
	JOINT lThigh
	{
		OFFSET 5.308129 -1.633274 1.361059 
		CHANNELS 3 Xrotation Zrotation Yrotation
		JOINT lShin
		{
			OFFSET -2.041588 -20.007561 0.000000 
			CHANNELS 3 Xrotation Zrotation Yrotation
			JOINT lFoot
			{
				OFFSET 0.000000 -19.190928 -1.224953 
				CHANNELS 3 Xrotation Yrotation Zrotation
				End Site
				{
					OFFSET 0.000000 -2.449906 4.627600 
				}
			}
		}
	}
	JOINT rThigh
	{
		OFFSET -5.308129 -1.633274 1.361059 
		CHANNELS 3 Xrotation Zrotation Yrotation
		JOINT rShin
		{
			OFFSET 2.041588 -20.007561 0.000000 
			CHANNELS 3 Xrotation Zrotation Yrotation
			JOINT rFoot
			{
				OFFSET 0.000000 -19.190928 -1.224953 
				CHANNELS 3 Xrotation Yrotation Zrotation
				End Site
				{
					OFFSET 0.000000 -2.449906 4.627600 
				}
			}
		}
	}
}
MOTION
Frames: 15
Frame Time: 0.016667
0.000000 25.754112 0.000000 36.240231 -2.275391 -25.400387 6.494140 -13.544922 -10.595703 4.218750 -0.703125 0.995974 -32.343750 5.625000 16.446270 1.552734 2.382812 2.080484 0.000000 0.000000 0.000000 -17.109377 -5.195313 -52.626957 -52.158207 -4.853515 4.013672 9.111327 -6.240234 34.365234 0.000000 0.000000 0.000000 -2.099609 43.525387 -64.973747 32.861328 2.753907 4.453125 -0.722656 15.253906 3.417969 -100.468132 -22.520145 16.068752 51.207512 -2.640429 -3.431774 -1.985272 -16.285130 10.200809 -94.954018 -40.739929 11.894053 71.424347 1.045323 4.867630 -44.917988 -3.672285 0.127314 
0.000000 25.500837 0.000000 35.761719 -3.710938 -22.539696 6.494140 -13.544922 -10.595703 4.042969 -0.527344 0.839844 -30.703127 5.126953 12.490232 1.728516 2.558594 1.542969 0.000000 0.000000 0.000000 -16.962891 -12.050781 -56.123047 -49.697266 -4.951172 4.082031 9.287109 -6.220703 35.243084 0.000000 0.000000 0.000000 -2.089844 43.876953 -64.970703 33.037109 2.744141 4.453125 0.986328 17.705078 7.646485 -101.237717 -22.675783 16.661045 50.508366 -2.757668 -3.452539 -1.524489 -16.810204 8.928140 -97.385071 -40.222534 14.260333 73.539757 1.044918 4.804278 -44.663090 -5.382879 -0.102932 
0.000000 25.247551 0.000000 35.126953 -5.039062 -19.365232 6.494140 -13.544922 -10.595703 3.867187 -0.527344 0.664063 -29.042969 4.785156 8.457728 1.904297 2.734375 0.840310 0.000000 0.000000 0.000000 -16.318359 -19.091797 -59.921879 -47.402344 -5.029297 4.141480 9.287109 -6.220703 35.946209 0.000000 0.000000 0.000000 -2.080078 44.228519 -64.970695 33.388668 2.744141 4.443360 2.900391 20.000002 12.239669 -102.141327 -22.509338 17.542351 50.159954 -2.656196 -3.391012 -1.167505 -17.574059 6.753137 -99.890076 -39.716217 15.577126 75.647285 0.517735 4.592574 -44.565979 -7.059994 0.091046 
-0.456700 25.117298 0.000000 34.824219 -5.781250 -17.568359 6.494140 -13.544922 -10.595703 3.691406 -0.527344 0.488191 -28.095701 4.453125 6.367946 2.080078 2.744141 0.498047 0.000000 0.000000 0.000000 -15.761719 -22.978516 -62.122955 -45.996094 -5.078125 4.189453 9.462890 -6.201171 36.474606 0.000000 0.000000 0.000000 -2.080078 44.580078 -64.960938 33.388668 2.744141 4.443360 4.023438 21.162109 14.857041 -102.477081 -22.685497 18.819054 50.327225 -2.636556 -3.384779 -0.946869 -17.745209 6.113553 -100.405708 -40.409039 16.335487 77.575890 0.508105 4.531461 -44.315781 -8.157143 0.449173 
-0.913401 24.987040 0.000000 34.365234 -6.689453 -15.996095 6.494140 -13.544922 -10.595703 3.691406 -0.351563 0.498047 -27.167967 4.423828 4.102316 2.080078 2.744141 0.322266 0.000000 0.000000 0.000000 -15.048828 -27.041016 -64.486862 -44.589844 -5.126953 4.228516 9.462890 -6.201171 36.826172 0.000000 0.000000 0.000000 -2.070312 44.755859 -64.954063 33.564449 2.734375 4.443359 5.361329 22.167971 17.718531 -102.965462 -22.519604 20.030338 51.014072 -2.728431 -3.312190 -0.841119 -18.244556 5.019447 -100.922867 -41.287910 16.968792 79.693108 0.507780 4.667008 -44.395374 -9.339255 0.473201 
-1.370100 24.864021 0.000000 34.062500 -7.304688 -14.063741 6.494140 -13.544922 -10.595703 3.515625 -0.351563 0.322266 -26.210938 4.238281 1.914062 2.246094 2.919922 -0.028799 0.000000 0.000000 0.000000 -14.033203 -30.937502 -67.167969 -43.183590 -5.175782 4.278225 9.462890 -6.201171 37.353508 0.000000 0.000000 0.000000 -2.070312 44.931641 -64.944275 33.564449 2.734375 4.443359 6.845703 23.359375 20.527344 -103.251709 -22.704880 21.864408 51.381485 -2.379677 -3.354444 -0.464695 -18.360167 4.271182 -101.427422 -41.970581 17.411432 81.800430 0.332230 4.660374 -44.102928 -10.364410 0.390750 
-1.370100 24.726526 0.000000 33.593750 -8.076173 -12.392579 6.494140 -13.544922 -10.595703 3.515625 -0.351563 0.146484 -25.244141 4.179688 -0.682882 2.246094 3.095703 -0.390098 0.000000 0.000000 0.000000 -12.675782 -34.843754 -69.736328 -41.767578 -5.214844 4.327059 9.638673 -6.181641 37.694263 0.000000 0.000000 0.000000 -2.060547 45.107422 -64.944252 33.740234 2.734375 4.443359 8.183594 24.355469 23.222656 -103.797073 -22.890951 23.487270 51.919632 -2.367431 -3.377402 -0.215062 -18.887630 3.131921 -101.925041 -42.898167 17.594755 83.724220 -0.009533 4.693163 -44.166466 -11.474468 0.461131 
-1.826799 24.581799 0.000000 33.310547 -8.847656 -10.537109 6.494140 -13.544922 -10.595703 3.339844 -0.175781 0.156250 -24.287109 4.169922 -2.929688 2.421875 3.095703 -0.731894 0.000000 0.000000 0.000000 -11.015624 -38.583984 -72.730705 -40.361328 -5.263671 4.375000 9.638673 -6.181641 38.221607 0.000000 0.000000 0.000000 -2.050781 45.458988 -64.934448 33.916019 2.734375 4.442893 9.697266 25.371094 26.107702 -104.102036 -22.881197 24.817915 52.111607 -2.357928 -3.222321 0.034462 -19.387178 2.053219 -102.706772 -43.572102 18.290762 85.840027 -0.029438 4.836542 -44.056690 -12.479218 0.243341 
-2.283499 24.444302 0.000000 32.841797 -9.492188 -8.720703 6.494140 -13.544922 -10.595703 3.339844 -0.175781 -0.019531 -23.320311 4.169922 -4.989524 2.597656 3.271485 -1.083427 0.000000 0.000000 0.000000 -9.072266 -42.343750 -76.119858 -38.955074 -5.302734 4.424731 9.814453 -6.162109 38.573170 0.000000 0.000000 0.000000 -1.875000 45.634766 -64.941414 33.916019 2.734375 4.442893 11.210937 26.386721 29.082033 -104.227997 -22.891409 26.303997 52.437420 -2.357833 -3.419536 0.084582 -19.790590 1.137632 -103.292023 -44.470360 18.975075 87.936333 -0.205036 4.827851 -43.891552 -13.654360 0.274014 
-2.283499 24.335752 0.000000 32.373047 -10.136718 -6.925546 6.494140 -13.544922 -10.595703 3.164063 0.000000 0.000000 -22.509766 4.296875 -7.490234 2.597656 3.271485 -1.434990 0.000000 0.000000 0.000000 -6.845703 -46.123043 -79.831261 -37.539063 -5.351563 4.473637 9.833984 -6.337891 39.101559 0.000000 0.000000 0.000000 -1.865235 45.810547 -64.931641 34.091797 2.734375 4.433594 12.939453 27.236328 31.977125 -104.948845 -22.890982 27.558506 52.799263 -2.570703 -3.352510 0.714995 -19.882702 0.039039 -103.860703 -45.183849 19.477549 89.861107 -0.556708 4.775446 -43.907627 -14.832462 0.321683 
-2.283499 25.146244 0.000000 32.646484 -9.365234 -6.836123 6.494140 -13.544922 -10.595703 3.164063 0.000000 0.000000 -22.890625 4.023438 -6.698534 2.597656 3.271485 -1.259208 0.000000 0.000000 0.000000 -8.515625 -44.824219 -76.999069 -39.833984 -5.283204 4.395431 10.957032 -6.923829 38.729290 0.000000 0.000000 0.000000 -1.865235 45.810547 -64.931641 34.091797 2.734375 4.433594 13.496094 25.332031 29.785158 -105.535599 -20.937700 25.154970 57.922573 -2.064298 -3.462966 -3.921438 -18.314943 -1.223870 -101.799713 -42.342079 18.690599 91.277992 -0.566524 4.521607 -45.778389 -14.933403 0.777013 
-2.283499 26.593554 0.000000 32.753910 -8.603517 -6.925288 6.494140 -13.544922 -10.595703 3.164063 0.000000 0.000000 -23.447264 3.759766 -5.741547 2.597656 3.095703 -1.249473 0.000000 0.000000 0.000000 -10.185547 -43.359375 -74.287109 -42.119141 -5.205078 4.317292 12.275390 -7.666016 38.378906 0.000000 0.000000 0.000000 -1.865235 45.810547 -64.931641 34.091797 2.734375 4.433594 14.199219 23.632814 27.250010 -106.112617 -18.828175 22.517080 63.005836 -1.723551 -3.636664 -8.520202 -16.109335 -2.300583 -99.938736 -39.550236 18.084705 92.844521 -0.741999 4.801586 -47.879982 -15.802569 0.406856 
-2.283499 27.925070 0.000000 32.861328 -7.851563 -6.982421 6.494140 -13.544922 -10.595703 3.164063 0.000000 0.000000 -24.003908 3.632813 -5.029297 2.597656 3.095703 -1.073691 0.000000 0.000000 0.000000 -11.708984 -41.904297 -71.627617 -44.238277 -5.136719 4.248920 13.417969 -8.427734 38.006382 0.000000 0.000000 0.000000 -1.865235 45.810547 -64.931641 34.091797 2.734375 4.433594 14.902343 21.923830 24.873045 -106.695755 -16.719582 19.881117 68.279938 -1.354408 -3.803285 -13.152308 -14.321863 -3.508321 -98.218262 -36.747314 17.454258 94.431427 -0.908295 4.539880 -49.865963 -16.210752 0.285218 
-2.283499 28.967129 0.000000 33.134766 -6.933594 -6.806640 6.494140 -13.544922 -10.595703 3.164063 0.000000 0.000000 -24.550781 3.359375 -4.238281 2.421875 2.919922 -0.897940 0.000000 0.000000 0.000000 -13.232422 -40.458988 -68.951645 -46.523438 -5.058594 4.170783 14.746093 -9.160156 37.656250 0.000000 0.000000 0.000000 -1.865235 45.810547 -64.931641 34.091797 2.734375 4.433594 15.605470 20.214844 22.513142 -107.705711 -14.971091 17.262941 73.736343 -1.022973 -3.974473 -17.589724 -12.460415 -4.274211 -96.406303 -33.924282 16.848753 96.004593 -1.259831 4.445726 -52.070972 -16.671263 0.494965 
-2.283499 29.755903 0.000000 33.261715 -6.191406 -6.875000 6.494140 -13.544922 -10.595703 3.164063 0.000000 0.000000 -25.107424 3.261719 -3.349610 2.421875 2.919922 -0.897940 0.000000 0.000000 0.000000 -14.443358 -38.837891 -66.627220 -48.818356 -4.980468 4.102410 16.064453 -9.902344 37.285160 0.000000 0.000000 0.000000 -1.865235 45.810547 -64.931641 34.091797 2.734375 4.433594 16.474609 18.525391 20.136719 -108.496445 -12.851940 14.433480 78.839973 -0.721193 -4.103306 -21.908510 -10.212479 -5.085670 -94.794167 -30.937613 16.858919 97.415695 -1.075466 4.548423 -54.239780 -17.356384 0.417367 
